<?xml version="1.0" encoding="utf-8"?>
<!-- Generator: Adobe Illustrator 15.0.0, SVG Export Plug-In . SVG Version: 6.00 Build 0)  -->
<!DOCTYPE svg PUBLIC "-//W3C//DTD SVG 1.1//EN" "http://www.w3.org/Graphics/SVG/1.1/DTD/svg11.dtd">
<svg version="1.1" id="Layer_1" xmlns="http://www.w3.org/2000/svg" xmlns:xlink="http://www.w3.org/1999/xlink" x="0px" y="0px"
	 width="32px" height="32px" viewBox="0 0 32 32" enable-background="new 0 0 32 32" xml:space="preserve">
<g>
	<linearGradient id="SVGID_1_" gradientUnits="userSpaceOnUse" x1="12.4126" y1="24.2285" x2="12.4668" y2="24.2285">
		<stop  offset="0" style="stop-color:#6E97C4"/>
		<stop  offset="1" style="stop-color:#ECEDEF"/>
	</linearGradient>
	<path fill="url(#SVGID_1_)" stroke="#2E4E72" stroke-width="0.75" d="M12.42,24.211c0.049,0.045,0.058,0.053,0.034,0.024
		C12.416,24.206,12.403,24.195,12.42,24.211z"/>
	<linearGradient id="SVGID_2_" gradientUnits="userSpaceOnUse" x1="8.3652" y1="21.9023" x2="24.4873" y2="21.9023">
		<stop  offset="0" style="stop-color:#6E97C4"/>
		<stop  offset="1" style="stop-color:#ECEDEF"/>
	</linearGradient>
	<path fill="url(#SVGID_2_)" stroke="#2E4E72" stroke-width="0.75" d="M21.414,18.855c-0.906-0.519-3.414-2.188-3.641-2.335
		c-0.635-0.412-1.099-0.715-1.099-0.715l-4.004,2.303l-4.306,2.475c0,0,4.27,4.206,4.634,4.521c0.062,0.055,3.348,2.896,3.348,2.896
		s3.672-3.101,4.968-4.362c0.544-0.527,3.173-3.089,3.173-3.089S22.121,19.263,21.414,18.855z"/>
</g>
<linearGradient id="SVGID_3_" gradientUnits="userSpaceOnUse" x1="0.834" y1="14.6895" x2="15.5708" y2="14.6895">
	<stop  offset="0" style="stop-color:#6E97C4"/>
	<stop  offset="1" style="stop-color:#ECEDEF"/>
</linearGradient>
<path fill="url(#SVGID_3_)" stroke="#2E4E72" stroke-width="0.75" d="M14.141,15.832c-0.058,0.038-0.116,0.076-0.175,0.111
	c-0.255,0.166-0.511,0.328-0.768,0.489c-0.081,0.049-0.159,0.098-0.239,0.147c-0.03,0.02-0.06,0.038-0.091,0.057
	c-0.284,0.175-0.57,0.347-0.858,0.518c-0.025,0.013-0.05,0.028-0.077,0.044c-0.08,0.047-0.158,0.094-0.239,0.14
	c-0.07,0.041-0.141,0.082-0.213,0.122c-0.027,0.015-0.055,0.032-0.083,0.047c-0.04,0.024-0.083,0.048-0.126,0.073
	c-0.033,0.019-0.067,0.037-0.1,0.057c-0.071,0.039-0.141,0.077-0.211,0.117c-0.076,0.044-0.151,0.085-0.226,0.128
	c-0.293,0.165-0.589,0.327-0.883,0.487c-0.032,0.018-0.063,0.037-0.095,0.053c-0.698,0.384-1.398,0.762-2.093,1.144l0,0
	c-1.235-1.294-2.364-2.556-3.52-3.901c-1.775-2.069-2.11-2.489-3.311-4.055c0.92-0.206,1.846-0.41,2.772-0.622
	c0.049-0.01,0.098-0.021,0.146-0.034c0.268-0.061,0.535-0.122,0.801-0.185c0.967-0.228,1.918-0.476,2.86-0.733
	c0.268-0.073,0.532-0.145,0.796-0.22c0,0,0,0,0.001,0c1.131,0.871,2.299,1.755,3.527,2.589c0.431,0.292,0.866,0.58,1.303,0.864
	c0.84,0.546,1.686,1.081,2.528,1.624C15.098,15.207,14.621,15.52,14.141,15.832z"/>
<linearGradient id="SVGID_4_" gradientUnits="userSpaceOnUse" x1="17.4688" y1="14.6392" x2="31.3066" y2="14.6392">
	<stop  offset="0" style="stop-color:#6E97C4"/>
	<stop  offset="1" style="stop-color:#ECEDEF"/>
</linearGradient>
<path fill-rule="evenodd" clip-rule="evenodd" fill="url(#SVGID_4_)" stroke="#2E4E72" stroke-width="0.75" d="M17.469,14.975
	c1.272-0.839,2.553-1.753,3.79-2.625c1.209-0.854,3.417-2.408,3.417-2.408c1.253,0.412,2.507,0.763,3.724,1.123
	c1.22,0.362,1.663,0.533,2.907,0.907c-0.987,1.349-1.688,2.255-2.83,3.568c-1.175,1.347-2.422,2.518-3.679,3.797
	c-1.379-0.743-1.983-1.163-3.285-1.958C20.252,16.61,18.759,15.828,17.469,14.975z"/>
<linearGradient id="SVGID_5_" gradientUnits="userSpaceOnUse" x1="5.4229" y1="8.9604" x2="28.0303" y2="8.9604">
	<stop  offset="0" style="stop-color:#6E97C4"/>
	<stop  offset="1" style="stop-color:#ECEDEF"/>
</linearGradient>
<path fill="url(#SVGID_5_)" stroke="#2E4E72" stroke-width="0.75" d="M5.423,5.377c0.779,0.768,1.574,1.562,2.418,2.326
	c0.874,0.789,1.832,1.519,2.79,2.271c0.947,0.745,1.868,1.561,2.908,2.205c1.1,0.682,2.161,1.287,3.094,2.021
	c1-0.688,2.032-1.343,3.092-2.028c1.039-0.671,2.021-1.42,3.005-2.152c0.987-0.733,1.956-1.465,2.85-2.251
	c0.859-0.757,1.66-1.55,2.451-2.312c-1.011-0.102-2.033-0.19-3.07-0.296c-1.024-0.103-2.04-0.237-3.056-0.369
	c-1.029-0.134-2.065-0.242-3.035-0.443c-0.835-0.174-1.558-0.422-2.225-0.625c-0.787,0.169-1.606,0.358-2.459,0.523
	c-0.91,0.178-1.861,0.319-2.802,0.472c-0.945,0.151-1.896,0.318-2.877,0.423C7.478,5.25,6.441,5.304,5.423,5.377z"/>
<g>
	<path fill="#5A8C5A" d="M21.615,17h7.77C30.829,17,32,18.171,32,19.615v7.77C32,28.829,30.829,30,29.385,30h-7.77
		C20.171,30,19,28.829,19,27.385v-7.77C19,18.171,20.171,17,21.615,17z"/>
	<path fill="#FFFFFF" stroke="#FFFFFF" stroke-width="2.6" stroke-linecap="round" stroke-linejoin="round" d="M21.6,23.5H29.4"/>
	<path fill="#FFFFFF" stroke="#FFFFFF" stroke-width="2.6" stroke-linecap="round" stroke-linejoin="round" d="M25.5,27.4V19.6"/>
	<path opacity="0.3" fill="#FCFFFF" enable-background="new    " d="M20.3,23.5h10.4c0,0,0,0,0-2.6c0-2.601-0.65-2.601-5.2-2.601
		s-5.2,0-5.2,2.601C20.3,23.5,20.3,23.5,20.3,23.5z"/>
</g>
</svg>
