<?xml version='1.0' encoding='iso-8859-1'?>
<svg version="1.1" xmlns="http://www.w3.org/2000/svg" viewBox="0 0 470 470" xmlns:xlink="http://www.w3.org/1999/xlink" enable-background="new 0 0 470 470">
  <g>
    <path d="m432.5,227.5h-77.031c-0.611-37.438-5.782-73.616-14.771-105.694h50.518c4.143,0 7.5-3.357 7.5-7.5s-3.357-7.5-7.5-7.5h-55.112c-8.018-24.165-18.316-45.521-30.553-62.656-2.408-3.371-7.093-4.153-10.462-1.745-3.371,2.407-4.152,7.092-1.745,10.462 10.618,14.868 19.688,33.199 26.965,53.939h-77.809v-69.306c0-4.143-3.357-7.5-7.5-7.5s-7.5,3.357-7.5,7.5v69.306h-77.81c7.277-20.74 16.347-39.071 26.965-53.939 2.407-3.37 1.626-8.055-1.745-10.462-3.372-2.407-8.055-1.625-10.462,1.745-12.237,17.135-22.535,38.492-30.553,62.656h-55.112c-4.143,0-7.5,3.357-7.5,7.5s3.357,7.5 7.5,7.5h50.518c-8.988,32.078-14.159,68.256-14.771,105.694h-77.03c-4.143,0-7.5,3.357-7.5,7.5s3.357,7.5 7.5,7.5h77.031c0.611,37.438 5.782,73.616 14.771,105.694h-50.519c-4.143,0-7.5,3.357-7.5,7.5s3.357,7.5 7.5,7.5h55.112c8.019,24.169 18.32,45.529 30.56,62.666 1.464,2.049 3.77,3.142 6.11,3.142 1.508,0 3.031-0.454 4.353-1.397 3.37-2.408 4.151-7.092 1.744-10.463-10.621-14.869-19.693-33.204-26.972-53.947h77.81v69.305c0,4.143 3.357,7.5 7.5,7.5s7.5-3.357 7.5-7.5v-69.306h77.81c-7.278,20.744-16.351,39.078-26.972,53.947-2.407,3.371-1.626,8.055 1.744,10.463 1.321,0.943 2.844,1.397 4.353,1.397 2.341,0 4.646-1.093 6.11-3.142 12.24-17.137 22.54-38.497 30.56-62.666h55.112c4.143,0 7.5-3.357 7.5-7.5s-3.357-7.5-7.5-7.5h-50.519c8.989-32.078 14.16-68.256 14.771-105.694h77.031c4.143,0 7.5-3.357 7.5-7.5s-3.357-7.499-7.5-7.499zm-107.36-105.694c9.313,31.683 14.695,67.958 15.326,105.694h-97.966v-105.694h82.64zm-180.28,0h82.64v105.694h-97.966c0.632-37.737 6.013-74.011 15.326-105.694zm0,226.388c-9.313-31.683-14.695-67.958-15.326-105.694h97.966v105.694h-82.64zm180.28,0h-82.64v-105.694h97.966c-0.632,37.737-6.013,74.012-15.326,105.694z"/>
    <path d="M401.17,68.83C356.784,24.444,297.771,0,235,0S113.216,24.444,68.83,68.83S0,172.229,0,235.001   c0,46.271,13.391,90.899,38.764,129.316l-28.718,86.148c-0.898,2.695-0.197,5.667,1.812,7.676c2.009,2.008,4.979,2.708,7.676,1.812   l86.15-28.716C144.102,456.609,188.729,470,235,470c62.771,0,121.784-24.444,166.17-68.83S470,297.771,470,235.001   C470,172.229,445.556,113.216,401.17,68.83z M235,455c-44.491,0-87.355-13.222-123.961-38.235   c-1.262-0.862-2.739-1.308-4.231-1.308c-0.797,0-1.598,0.127-2.372,0.385L29.02,440.979l25.14-75.414   c0.741-2.225,0.399-4.668-0.923-6.604C28.222,322.357,15,279.492,15,235.001C15,113.692,113.691,15,235,15s220,98.692,220,220.001   C455,356.309,356.309,455,235,455z"/>
  </g>
</svg>
