<?xml version="1.0" encoding="iso-8859-1"?>
<!-- Generator: Adobe Illustrator 16.0.0, SVG Export Plug-In . SVG Version: 6.00 Build 0)  -->
<!DOCTYPE svg PUBLIC "-//W3C//DTD SVG 1.1//EN" "http://www.w3.org/Graphics/SVG/1.1/DTD/svg11.dtd">
<svg xmlns="http://www.w3.org/2000/svg" xmlns:xlink="http://www.w3.org/1999/xlink" version="1.1" id="Capa_1" x="0px" y="0px" width="512px" height="512px" viewBox="0 0 37.567 37.567" style="enable-background:new 0 0 37.567 37.567;" xml:space="preserve">
<g>
	<g>
		<path d="M35.512,17.978c0.226-0.614,0.136-1.298-0.237-1.834c-0.374-0.536-0.985-0.854-1.641-0.854h-4.428V10c0-1.104-0.896-2-2-2    h-3.757V2c0-1.104-0.896-2-2-2h-5.332c-1.104,0-2,0.896-2,2v6h-3.756c-1.104,0-2,0.896-2,2v5.289H3.934    c-0.652,0-1.266,0.318-1.64,0.854s-0.463,1.22-0.238,1.834c0,0,5.577,15.102,5.677,15.24c-0.597,0.228-1.215,0.351-1.846,0.351    c-1.104,0-2,0.895-2,2c0,1.104,0.896,2,2,2c2.333,0,4.594-0.91,6.449-2.554c1.854,1.644,4.116,2.554,6.448,2.554    c2.331,0,4.593-0.91,6.447-2.554c1.854,1.644,4.115,2.554,6.448,2.554c1.104,0,2-0.896,2-2c0-1.105-0.896-2-2-2    c-0.631,0-1.25-0.123-1.846-0.351C29.933,33.079,35.512,17.978,35.512,17.978z M25.206,12v3.289h-4.424V12H25.206z M12.362,12    h4.423v3.289h-4.423V12z" fill="#734a08"/>
	</g>
</g>
<g>
</g>
<g>
</g>
<g>
</g>
<g>
</g>
<g>
</g>
<g>
</g>
<g>
</g>
<g>
</g>
<g>
</g>
<g>
</g>
<g>
</g>
<g>
</g>
<g>
</g>
<g>
</g>
<g>
</g>
</svg>
