<?xml version="1.0" encoding="iso-8859-1"?>
<!-- Generator: Adobe Illustrator 18.0.0, SVG Export Plug-In . SVG Version: 6.00 Build 0)  -->
<!DOCTYPE svg PUBLIC "-//W3C//DTD SVG 1.1//EN" "http://www.w3.org/Graphics/SVG/1.1/DTD/svg11.dtd">
<svg xmlns="http://www.w3.org/2000/svg" xmlns:xlink="http://www.w3.org/1999/xlink" version="1.1" id="Capa_1" x="0px" y="0px" viewBox="0 0 50.768 50.768" style="enable-background:new 0 0 50.768 50.768;" xml:space="preserve" width="512px" height="512px">
<path d="M48.909,35.873c-1.425,0-2.786-0.462-3.732-1.268c-0.32-0.272-0.723-0.371-1.117-0.332v-17.82  c0-1.217,0.99-2.207,2.207-2.207c0.829,0,1.5-0.671,1.5-1.5V8.451h1.502c0.829,0,1.5-0.671,1.5-1.5s-0.671-1.5-1.5-1.5H1.5  c-0.829,0-1.5,0.671-1.5,1.5s0.671,1.5,1.5,1.5h1.502v4.295c0,0.829,0.671,1.5,1.5,1.5c1.217,0,2.207,0.99,2.207,2.207v17.82  c-0.393-0.038-0.797,0.06-1.117,0.332c-0.947,0.806-2.308,1.268-3.733,1.268c-0.829,0-1.5,0.671-1.5,1.5c0,0.829,0.671,1.5,1.5,1.5  c1.722,0,3.352-0.448,4.705-1.279c1.352,0.831,2.983,1.279,4.705,1.279c1.721,0,3.352-0.448,4.705-1.278  c1.352,0.831,2.983,1.278,4.705,1.278c1.722,0,3.353-0.448,4.705-1.278c1.353,0.83,2.984,1.278,4.705,1.278  c1.722,0,3.353-0.448,4.705-1.279c1.352,0.831,2.983,1.279,4.705,1.279c1.721,0,3.353-0.448,4.705-1.278  c1.352,0.831,2.983,1.278,4.705,1.278c0.829,0,1.5-0.671,1.5-1.5C50.409,36.544,49.737,35.873,48.909,35.873z M30.089,35.873  c-1.425,0-2.786-0.462-3.733-1.268c-0.561-0.477-1.383-0.477-1.944,0c-0.947,0.806-2.307,1.268-3.733,1.268  c-1.425,0-2.786-0.462-3.732-1.268c-0.042-0.035-0.093-0.05-0.138-0.08V16.453c0-1.217,0.99-2.207,2.207-2.207  c0.829,0,1.5-0.671,1.5-1.5V8.451h9.738v4.295c0,0.829,0.671,1.5,1.5,1.5c1.217,0,2.206,0.99,2.206,2.207v18.072  c-0.044,0.03-0.096,0.044-0.138,0.08C32.875,35.411,31.514,35.873,30.089,35.873z M50.409,43.817c0,0.829-0.671,1.5-1.5,1.5  c-1.721,0-3.352-0.448-4.705-1.279c-1.353,0.831-2.984,1.279-4.705,1.279c-1.721,0-3.353-0.448-4.705-1.279  c-1.353,0.831-2.984,1.279-4.705,1.279c-1.721,0-3.352-0.448-4.705-1.279c-1.353,0.831-2.984,1.279-4.705,1.279  c-1.721,0-3.352-0.448-4.705-1.279c-1.353,0.831-2.984,1.279-4.705,1.279s-3.353-0.448-4.705-1.279  c-1.353,0.831-2.984,1.279-4.705,1.279c-0.829,0-1.5-0.671-1.5-1.5c0-0.829,0.671-1.5,1.5-1.5c1.425,0,2.786-0.462,3.733-1.268  c0.561-0.477,1.383-0.477,1.943,0c0.948,0.806,2.309,1.268,3.733,1.268s2.786-0.462,3.733-1.268c0.56-0.477,1.384-0.476,1.944,0  c0.947,0.806,2.308,1.268,3.732,1.268c1.425,0,2.786-0.462,3.733-1.268c0.561-0.477,1.383-0.477,1.944,0  c0.948,0.806,2.309,1.268,3.733,1.268c1.425,0,2.786-0.462,3.733-1.268c0.561-0.477,1.383-0.477,1.943,0  c0.948,0.806,2.309,1.268,3.733,1.268c1.425,0,2.786-0.462,3.733-1.268c0.56-0.477,1.384-0.476,1.944,0  c0.947,0.806,2.308,1.268,3.732,1.268C49.737,42.317,50.409,42.988,50.409,43.817z" fill="#734a08"/>
<g>
</g>
<g>
</g>
<g>
</g>
<g>
</g>
<g>
</g>
<g>
</g>
<g>
</g>
<g>
</g>
<g>
</g>
<g>
</g>
<g>
</g>
<g>
</g>
<g>
</g>
<g>
</g>
<g>
</g>
</svg>
